<svg width="181" height="180" viewBox="0 0 181 180" fill="none" xmlns="http://www.w3.org/2000/svg">
<circle cx="90.1878" cy="90.9214" r="76.0686" fill="white"/>
<path d="M24.1706 32.3452H24.4108C15.5544 42.3595 9.09731 54.2952 5.56997 67.2444C1.52537 82.0924 1.47642 97.7457 5.42807 112.619L5.42835 112.62C9.38587 127.489 17.201 141.049 28.0828 151.927C38.9646 162.805 52.5269 170.616 67.3973 174.569C82.2676 178.521 97.9182 178.476 112.765 174.437C127.611 170.398 141.126 162.51 151.943 151.57C168.317 135.194 177.515 112.985 177.515 89.8269C177.515 66.6664 168.314 44.4544 151.937 28.0775C135.56 11.7005 113.348 2.5 90.1879 2.5C67.0273 2.5 44.8154 11.7005 28.4384 28.0775L24.1706 32.3452ZM64.9153 151.289C56.7985 147.939 49.4267 143.012 43.2264 136.793C30.8736 124.405 23.9072 107.643 23.8403 90.1489C23.7735 72.6544 30.6114 55.8399 42.8691 43.3575C55.1268 30.875 71.8143 23.7327 89.3072 23.4817C106.8 23.2308 123.686 29.8915 136.296 42.0171C142.626 48.1035 147.686 55.3845 151.184 63.4391C154.681 71.4937 156.547 80.1619 156.673 88.9422C156.799 97.7225 155.183 106.441 151.918 114.592C148.653 122.744 143.803 130.167 137.651 136.433C131.498 142.698 124.164 147.681 116.073 151.094C107.982 154.507 99.295 156.281 90.5139 156.315C81.7327 156.348 73.0321 154.64 64.9153 151.289Z" fill="#4FBBFF" stroke="white" stroke-width="5"/>
<circle cx="89.5" cy="89.5" r="32" stroke="#4FBBFF" stroke-width="15"/>
</svg>
