<svg width="181" height="180" viewBox="0 0 181 180" fill="none" xmlns="http://www.w3.org/2000/svg">
<circle cx="90.1879" cy="90.9214" r="76.0686" fill="white"/>
<path d="M24.1706 32.3452H24.4108C15.5544 42.3595 9.09731 54.2952 5.56997 67.2444C1.52537 82.0924 1.47642 97.7457 5.42807 112.619L5.42835 112.62C9.38587 127.489 17.201 141.049 28.0828 151.927C38.9646 162.805 52.5269 170.616 67.3973 174.569C82.2676 178.521 97.9182 178.476 112.765 174.437C127.61 170.398 141.125 162.51 151.942 151.572C168.316 135.195 177.515 112.985 177.515 89.8269C177.515 66.6664 168.314 44.4544 151.937 28.0775C135.56 11.7005 113.348 2.5 90.1879 2.5C67.0273 2.5 44.8154 11.7005 28.4384 28.0775L24.1706 32.3452ZM71.0675 55.9318L71.0358 55.9001L71.003 55.8695C69.021 54.0248 66.4011 53.0203 63.6939 53.0671C60.9867 53.1138 58.403 54.2083 56.4859 56.1203L56.4813 56.125C54.5692 58.042 53.4748 60.6257 53.428 63.3329C53.3812 66.0402 54.3858 68.6601 56.2305 70.6421L56.261 70.6749L56.2927 70.7066L75.413 89.8269L56.322 108.918C54.9667 110.192 53.9762 111.805 53.4532 113.591C52.9261 115.39 52.8933 117.298 53.3582 119.115C53.8192 120.934 54.7618 122.595 56.0871 123.924C57.4134 125.254 59.0739 126.201 60.8935 126.667C62.7131 127.132 64.6245 127.098 66.4264 126.568C68.2124 126.042 69.8252 125.049 71.098 123.692L90.1879 104.602L109.279 123.693C110.553 125.048 112.166 126.039 113.952 126.562C115.751 127.089 117.66 127.121 119.477 126.656C121.296 126.195 122.957 125.253 124.285 123.928C125.615 122.601 126.562 120.941 127.028 119.121C127.493 117.302 127.459 115.39 126.929 113.588C126.403 111.802 125.41 110.189 124.052 108.917L104.963 89.8269L124.054 70.7357C125.409 69.4617 126.4 67.8487 126.923 66.0632C127.45 64.2635 127.482 62.3551 127.017 60.5384C126.556 58.7195 125.614 57.0583 124.289 55.7297C122.962 54.3999 121.302 53.4524 119.482 52.9872C117.663 52.5219 115.751 52.5561 113.949 53.086C112.163 53.6113 110.551 54.6045 109.278 55.9622L90.1879 75.0521L71.0675 55.9318ZM64.9153 151.289C56.7985 147.939 49.4267 143.012 43.2264 136.794C30.8736 124.405 23.9072 107.643 23.8403 90.1489C23.7735 72.6544 30.6114 55.8399 42.8691 43.3575C55.1268 30.875 71.8143 23.7327 89.3072 23.4817C106.8 23.2308 123.686 29.8915 136.296 42.0171C142.626 48.1035 147.686 55.3845 151.184 63.4391C154.681 71.4937 156.547 80.1619 156.673 88.9422C156.799 97.7225 155.183 106.441 151.918 114.592C148.653 122.744 143.803 130.167 137.651 136.433C131.498 142.698 124.164 147.681 116.073 151.094C107.982 154.507 99.295 156.281 90.5139 156.315C81.7327 156.348 73.0321 154.64 64.9153 151.289Z" fill="#FF2323" stroke="white" stroke-width="5"/>
</svg>
