<svg width="14" height="15" viewBox="0 0 14 15" fill="none" xmlns="http://www.w3.org/2000/svg">
<path d="M13.5 1.00005V9.75005C13.5012 10.2534 13.334 10.7427 13.0251 11.1402C12.7162 11.5376 12.2832 11.8203 11.7951 11.9433C11.307 12.0663 10.7918 12.0226 10.3314 11.819C9.871 11.6155 9.49191 11.2638 9.25441 10.82C9.01691 10.3762 8.93465 9.86568 9.02071 9.36972C9.10678 8.87375 9.35622 8.42082 9.72936 8.08296C10.1025 7.74509 10.5779 7.54172 11.08 7.50518C11.582 7.46864 12.0819 7.60103 12.5 7.88131V4.13755L5.49998 5.88755V11.7501C5.50119 12.2534 5.33404 12.7427 5.02511 13.1402C4.71618 13.5376 4.28322 13.8203 3.79511 13.9433C3.307 14.0663 2.79177 14.0226 2.33138 13.819C1.871 13.6155 1.49191 13.2638 1.25441 12.82C1.01691 12.3762 0.934649 11.8657 1.02071 11.3697C1.10678 10.8738 1.35622 10.4208 1.72936 10.083C2.10251 9.74509 2.57791 9.54172 3.07996 9.50518C3.58201 9.46864 4.08185 9.60103 4.49998 9.8813V3.00005C4.49958 2.88779 4.53696 2.77866 4.60612 2.69023C4.67528 2.6018 4.77218 2.53922 4.88123 2.51255L12.8812 0.512554C12.9546 0.49514 13.0309 0.494527 13.1045 0.510762C13.1781 0.526996 13.247 0.559657 13.3062 0.606304C13.3671 0.652223 13.4163 0.711763 13.4499 0.780145C13.4836 0.848527 13.5007 0.923845 13.5 1.00005Z" fill="black"/>
</svg>
